# xmcd
#
# Track frame offsets: 
#        150
#        13470
#        28067
#        43218
#        56701
#        73571
#        91752
#        107683
#        122431
#        138210
#        153861
#        168358
#        195807
#
# Disc length: 2885 seconds
#
# Revision: 0
# Processed by: cddbd v1.5.2PL0 Copyright (c) Steve Scherf et al.
# Submitted via: ExactAudioCopy v0.99pb4
#
DISCID=a30b430d
DTITLE=Avril Lavigne - Under My Skin
DYEAR=2004
DGENRE=Rock
TTITLE0=Take Me Away
TTITLE1=Together
TTITLE2=Don't Tell Me
TTITLE3=He Wasn't
TTITLE4=How Does I Feel
TTITLE5=My Happy Ending
TTITLE6=Nobody's Home
TTITLE7=Forgotten
TTITLE8=Who Knows
TTITLE9=Fall To Pieces
TTITLE10=Freak Out
TTITLE11=Slipped Away
TTITLE12=DATA
EXTD=
EXTT0=
EXTT1=
EXTT2=
EXTT3=
EXTT4=
EXTT5=
EXTT6=
EXTT7=
EXTT8=
EXTT9=
EXTT10=
EXTT11=
EXTT12=
PLAYORDER=
